<svg width="50" height="47" viewBox="0 0 50 47" fill="none" xmlns="http://www.w3.org/2000/svg">
<g id="Layer_1" clip-path="url(#clip0_157_4)">
<path id="Vector" d="M16.9435 25.8271L0 23.088L4.26857 10.2469L19.9738 16.2593L22.7273 22.6836L16.9435 25.8271ZM16.8051 47L5.65298 39.0726L16.9435 25.8195L23.5579 25.4075L25.0731 31.8318L16.8051 47ZM24.9269 20.6312L19.9662 16.2593L18.0434 0.137338L31.5413 0L30.303 16.3966L24.9346 20.6312H24.9269ZM34.0178 46.8627L25.0654 31.8318L26.5805 25.4075L33.3256 26.0865L44.4855 39.0649L34.0178 46.855V46.8627ZM33.3333 26.0942L27.9649 22.1343L30.303 16.3966L45.593 9.8349L50 22.8133L33.3333 26.0942Z" fill="#FFBC03"/>
</g>
<defs>
<clipPath id="clip0_157_4">
<rect width="50" height="47" fill="white"/>
</clipPath>
</defs>
</svg>
